<svg width="15" height="12" viewBox="0 0 15 12" fill="none" xmlns="http://www.w3.org/2000/svg">
<path d="M0.666748 2.66675L6.11003 6.47704C6.55081 6.78559 6.7712 6.93986 7.01092 6.99962C7.22268 7.0524 7.44415 7.0524 7.65591 6.99962C7.89563 6.93986 8.11602 6.78559 8.5568 6.47704L14.0001 2.66675M3.86675 11.3334H10.8001C11.9202 11.3334 12.4802 11.3334 12.9081 11.1154C13.2844 10.9237 13.5903 10.6177 13.7821 10.2414C14.0001 9.81357 14.0001 9.25352 14.0001 8.13341V3.86675C14.0001 2.74664 14.0001 2.18659 13.7821 1.75877C13.5903 1.38244 13.2844 1.07648 12.9081 0.884735C12.4802 0.666748 11.9202 0.666748 10.8001 0.666748H3.86675C2.74664 0.666748 2.18659 0.666748 1.75877 0.884735C1.38244 1.07648 1.07648 1.38244 0.884735 1.75877C0.666748 2.18659 0.666748 2.74664 0.666748 3.86675V8.13341C0.666748 9.25352 0.666748 9.81357 0.884735 10.2414C1.07648 10.6177 1.38244 10.9237 1.75877 11.1154C2.18659 11.3334 2.74664 11.3334 3.86675 11.3334Z" stroke="#717680" stroke-width="1.33333" stroke-linecap="round" stroke-linejoin="round"/>
</svg>
