<svg width="10" height="12" viewBox="0 0 10 12" fill="none" xmlns="http://www.w3.org/2000/svg">
<path d="M8.48393 3.84185C8.39985 3.76418 8.28187 3.72888 8.16642 3.74693C8.05075 3.76491 7.95087 3.83393 7.89721 3.93298C7.71268 4.27374 7.47829 4.58689 7.20252 4.86371C7.23002 4.66374 7.24385 4.46257 7.24385 4.26087C7.24385 3.87385 7.18928 3.47557 7.0816 3.07697C6.72758 1.76772 5.79924 0.660508 4.5347 0.0392489C4.4246 -0.0148215 4.29342 -0.0129231 4.18511 0.0443114C4.07679 0.101569 4.00585 0.206546 3.99613 0.323968C3.89755 1.51375 3.25282 2.59619 2.22627 3.29445C2.21268 3.30375 2.1992 3.31317 2.18571 3.32255C2.15777 3.34198 2.13144 3.36035 2.10683 3.37577C2.10298 3.37821 2.09916 3.3807 2.09541 3.38325C1.44979 3.82263 0.917073 4.40834 0.554786 5.07722C0.186655 5.75759 0 6.4877 0 7.24719C0 7.6341 0.0545662 8.03237 0.162195 8.43105C0.730172 10.5324 2.71961 12 5.00015 12C7.75709 12 10 9.86789 10 7.24719C10 5.95484 9.46159 4.74546 8.48393 3.84185Z" fill="#383838"/>
</svg>
