<svg width="16" height="16" viewBox="0 0 16 16" fill="none" xmlns="http://www.w3.org/2000/svg">
<path d="M11.9997 0H3.9999C1.80015 0 0 1.80015 0 3.9999V12.0001C0 14.1993 1.80015 16 3.9999 16H11.9997C14.1995 16 15.9996 14.1993 15.9996 12.0001V3.9999C15.9996 1.80015 14.1995 0 11.9997 0ZM14.6662 12.0001C14.6662 13.4701 13.4705 14.6666 11.9997 14.6666H3.9999C2.52974 14.6666 1.33337 13.4701 1.33337 12.0001V3.9999C1.33337 2.52955 2.52974 1.33337 3.9999 1.33337H11.9997C13.4705 1.33337 14.6662 2.52955 14.6662 3.9999V12.0001Z" fill="#090909"/>
<path d="M12.333 4.66646C12.8853 4.66646 13.333 4.21875 13.333 3.66648C13.333 3.11421 12.8853 2.6665 12.333 2.6665C11.7807 2.6665 11.333 3.11421 11.333 3.66648C11.333 4.21875 11.7807 4.66646 12.333 4.66646Z" fill="#090909"/>
<path d="M7.9999 4C5.79035 4 4 5.79054 4 7.9999C4 10.2084 5.79035 12.0002 7.9999 12.0002C10.2088 12.0002 11.9998 10.2084 11.9998 7.9999C11.9998 5.79054 10.2088 4 7.9999 4ZM7.9999 10.6668C6.52732 10.6668 5.33337 9.47287 5.33337 7.9999C5.33337 6.52693 6.52732 5.33337 7.9999 5.33337C9.47248 5.33337 10.6664 6.52693 10.6664 7.9999C10.6664 9.47287 9.47248 10.6668 7.9999 10.6668Z" fill="#090909"/>
</svg>
