<svg width="16" height="16" viewBox="0 0 16 16" fill="none" xmlns="http://www.w3.org/2000/svg">
<path d="M12.5908 4.5098C12.5908 2.01961 10.5349 0 7.99998 0C5.46506 0 3.40918 2.01961 3.40918 4.5098C3.40918 7 5.46506 9.0196 7.99998 9.0196C10.5349 9.0196 12.5908 7 12.5908 4.5098ZM4.60678 4.5098C4.60678 2.66667 6.12374 1.17647 7.99998 1.17647C9.87622 1.17647 11.3932 2.66667 11.3932 4.5098C11.3932 6.35294 9.87622 7.84313 7.99998 7.84313C6.12374 7.84313 4.60678 6.35294 4.60678 4.5098Z" fill="#792BF9"/>
<path d="M0.315063 15.9216C0.414863 15.9804 0.514663 16 0.614463 16C0.814064 16 1.03362 15.902 1.13342 15.7059C2.53062 13.2745 5.16535 11.7647 7.99967 11.7647C10.834 11.7647 13.4687 13.2745 14.8859 15.7059C15.0456 15.9804 15.4248 16.0784 15.7042 15.9216C15.9837 15.7647 16.0835 15.3922 15.9238 15.1177C14.307 12.3334 11.2731 10.5883 7.99967 10.5883C4.72623 10.5883 1.6923 12.3334 0.0755429 15.1177C-0.0841372 15.3922 0.015663 15.7647 0.315063 15.9216Z" fill="#792BF9"/>
</svg>
